<?xml version="1.0" encoding="UTF-8"?>
<svg id="Layer_1" xmlns="http://www.w3.org/2000/svg" version="1.1" viewBox="0 0 78.06 98.82">
  <!-- Generator: Adobe Illustrator 29.2.1, SVG Export Plug-In . SVG Version: 2.1.0 Build 116)  -->
  <defs>
    <style>
      .st0 {
        fill: #f7efe0;
      }

      .st1 {
        fill: #387eb8;
      }

      .st2 {
        fill: #f84727;
      }

      .st3 {
        fill: #ffc331;
      }
    </style>
  </defs>
  <path class="st1" d="M30.59,18.69H12.63C5.69,18.69.06,26.99,0,37.25v.15c0,1.79.17,3.58.52,5.34,1.55,7.73,6.38,13.36,12.1,13.36h3.4v-9.02c0-5.23,3.48-10.01,9.18-11.04l1.65-.21h3.73v-17.14Z"/>
  <path class="st3" d="M47.47,80.13h17.97c6.94,0,12.57-8.29,12.63-18.55v-.15c0-1.79-.17-3.58-.52-5.34-1.55-7.73-6.38-13.36-12.1-13.36h-3.4v9.02c0,5.23-3.48,10.01-9.18,11.04l-1.65.21h-3.73v17.14Z"/>
  <g>
    <circle cx="39.03" cy="49.34" r="39.03"/>
    <circle class="st0" cx="39.03" cy="49.23" r="35.52"/>
    <circle class="st2" cx="39.03" cy="49.23" r="28.35"/>
  </g>
  <path class="st1" d="M44.64.73c-3.1-.51-7.65-.75-10.73-.73-2.89,0-5.78.25-8.62.73-7.64,1.34-9.03,4.12-9.03,9.27v6.02h18.7v2.67h-10.21v17.14h19.89c.85,0,1.7-.11,2.51-.33,3.85-1.03,6.52-4.53,6.5-8.51V10c0-4.83-4.12-8.47-9.02-9.27ZM28.15,8.88c0,1.87-1.51,3.39-3.39,3.39h0c-1.88,0-3.41-1.51-3.41-3.39,0-1.88,1.51-3.41,3.39-3.41,1.88,0,3.41,1.51,3.41,3.39,0,0,0,.02,0,.02Z"/>
  <rect class="st1" x="13.13" y="18.69" width="26.17" height="17.15"/>
  <rect class="st1" x="5.33" y="22.9" width="10.16" height="12.94"/>
  <path class="st3" d="M33.42,98.09c3.1.51,7.65.75,10.73.73,2.89,0,5.78-.25,8.62-.73,7.64-1.34,9.03-4.12,9.03-9.27v-6.02h-18.7v-2.67h10.21v-17.14h-19.89c-.85,0-1.7.11-2.51.33-3.85,1.03-6.52,4.53-6.5,8.51v16.99c0,4.83,4.12,8.47,9.02,9.27ZM49.91,89.94c0-1.87,1.51-3.39,3.39-3.39h0c1.88,0,3.41,1.51,3.41,3.39,0,1.88-1.51,3.41-3.39,3.41-1.88,0-3.41-1.51-3.41-3.39,0,0,0-.02,0-.02Z"/>
  <rect class="st3" x="38.77" y="62.98" width="26.17" height="17.15" transform="translate(103.7 143.11) rotate(180)"/>
  <rect class="st3" x="62.57" y="62.98" width="10.87" height="11.69" transform="translate(136.02 137.66) rotate(180)"/>
  <rect class="st1" x="9.75" y="19.83" width="5.11" height="3.97"/>
  <rect class="st1" x="2.25" y="28.19" width="3.58" height="7.65"/>
  <rect class="st3" x="62.57" y="72.98" width="6.49" height="5.72"/>
  <rect class="st3" x="68.82" y="62.98" width="7.31" height="5.44"/>
</svg>